<?xml version="1.0" encoding="utf-8"?>
<!-- Generator: Adobe Illustrator 28.0.0, SVG Export Plug-In . SVG Version: 6.00 Build 0)  -->
<svg version="1.1" id="レイヤー_1" xmlns="http://www.w3.org/2000/svg" xmlns:xlink="http://www.w3.org/1999/xlink" x="0px"
	 y="0px" viewBox="0 0 258.95 128.73" style="enable-background:new 0 0 258.95 128.73;" xml:space="preserve">
<style type="text/css">
	.st0{fill:#3E3A39;}
	<!-- ↑このカラーコードを使おう -->
</style>
<g>
	<g>
		<path class="st0" d="M138.12,83.23c-0.05,0-0.11-0.01-0.16-0.02c-0.45-0.09-0.75-0.53-0.66-0.98l3.4-17.58
			c0.09-0.45,0.53-0.75,0.98-0.66c0.45,0.09,0.75,0.53,0.66,0.98l-3.4,17.58C138.86,82.95,138.51,83.23,138.12,83.23z"/>
		<path class="st0" d="M150.62,75.72c-0.04,0-0.08,0-0.12-0.01l-7.93-1.11c-0.46-0.06-0.78-0.49-0.71-0.95s0.49-0.78,0.95-0.71
			l7.93,1.11c0.46,0.06,0.78,0.49,0.71,0.95C151.39,75.42,151.03,75.72,150.62,75.72z"/>
		<path class="st0" d="M151.1,70.69c-0.19,0-0.38-0.06-0.54-0.19l-2.34-1.95c-0.36-0.3-0.4-0.83-0.11-1.18
			c0.3-0.35,0.83-0.4,1.18-0.11l2.34,1.95c0.36,0.3,0.4,0.83,0.11,1.18C151.58,70.58,151.34,70.69,151.1,70.69z"/>
		<path class="st0" d="M153.3,68.49c-0.19,0-0.38-0.06-0.54-0.19l-2.34-1.95c-0.36-0.3-0.4-0.83-0.11-1.18
			c0.3-0.35,0.83-0.4,1.18-0.11l2.34,1.95c0.36,0.3,0.4,0.83,0.11,1.18C153.77,68.39,153.54,68.49,153.3,68.49z"/>
		<path class="st0" d="M164.36,83.22c-0.23,0-0.47-0.1-0.63-0.29c-0.3-0.35-0.27-0.88,0.08-1.18c0.03-0.03,3.25-2.85,5.15-6.5
			c1.89-3.65,2.34-7.92,2.35-7.96c0.05-0.46,0.46-0.79,0.92-0.75c0.46,0.05,0.8,0.46,0.75,0.92c-0.02,0.19-0.48,4.62-2.53,8.57
			c-2.04,3.94-5.39,6.87-5.54,7C164.75,83.16,164.56,83.22,164.36,83.22z"/>
		<path class="st0" d="M174.6,83.22c-0.16,0-0.33-0.05-0.47-0.14c-0.28-0.19-0.42-0.52-0.35-0.85l3.4-17.58
			c0.09-0.45,0.53-0.75,0.98-0.66c0.45,0.09,0.75,0.53,0.66,0.98l-3.03,15.66l8.83-5.64c0.39-0.25,0.91-0.14,1.16,0.25
			c0.25,0.39,0.14,0.91-0.25,1.16l-10.47,6.7C174.91,83.18,174.75,83.22,174.6,83.22z"/>
		<path class="st0" d="M212.51,65.64h-10.17c-0.46,0-0.84-0.38-0.84-0.84s0.38-0.84,0.84-0.84h10.17c0.46,0,0.84,0.38,0.84,0.84
			S212.97,65.64,212.51,65.64z"/>
		<path class="st0" d="M216.66,70.82h-9.03c0.47-1.88,0.61-3.26,0.62-3.37c0.05-0.46-0.29-0.87-0.75-0.92
			c-0.46-0.04-0.87,0.29-0.92,0.75c0,0.03-0.17,1.54-0.69,3.53h-9.55c-0.46,0-0.84,0.38-0.84,0.84c0,0.46,0.38,0.84,0.84,0.84h9.04
			c-0.31,0.91-0.69,1.85-1.15,2.75c-1.89,3.65-5.11,6.47-5.15,6.5c-0.35,0.3-0.39,0.83-0.08,1.18c0.17,0.19,0.4,0.29,0.63,0.29
			c0.19,0,0.39-0.07,0.55-0.2c0.14-0.12,3.49-3.05,5.54-7c0.61-1.17,1.07-2.39,1.43-3.52h9.5c0.46,0,0.84-0.38,0.84-0.84
			C217.5,71.2,217.13,70.82,216.66,70.82z"/>
		<path class="st0" d="M238.6,74.84h-9.94c-0.46,0-0.84-0.38-0.84-0.84s0.38-0.84,0.84-0.84h9.94c0.46,0,0.84,0.38,0.84,0.84
			S239.07,74.84,238.6,74.84z"/>
		<path class="st0" d="M240.07,81.55h-7l0.93-4.8c0.09-0.45-0.21-0.9-0.66-0.98c-0.46-0.09-0.89,0.21-0.98,0.66l-0.99,5.12h-7.33
			c-0.46,0-0.84,0.38-0.84,0.84c0,0.46,0.38,0.84,0.84,0.84h8.02c0,0,0,0,0.01,0c0,0,0,0,0,0h8.02c0.46,0,0.84-0.38,0.84-0.84
			C240.9,81.92,240.53,81.55,240.07,81.55z"/>
	</g>
	<g>
		<path class="st0" d="M166.29,45.52h-2.74c-0.27,0-0.5,0.19-0.56,0.46l-0.95,4.92c-0.06,0.31,0.14,0.6,0.45,0.66
			c0.04,0.01,0.07,0.01,0.11,0.01c0.27,0,0.5-0.19,0.56-0.46l0.86-4.46h2.27c0.31,0,0.57-0.25,0.57-0.57
			C166.86,45.77,166.6,45.52,166.29,45.52z"/>
		<path class="st0" d="M171.78,45.52h-2.86c-0.27,0-0.5,0.19-0.56,0.46l-0.95,4.92c-0.06,0.31,0.14,0.6,0.45,0.66
			c0.04,0.01,0.07,0.01,0.11,0.01c0.27,0,0.5-0.19,0.56-0.46l0.86-4.46h2.39c0.31,0,0.57-0.25,0.57-0.57
			C172.34,45.77,172.09,45.52,171.78,45.52z"/>
		<path class="st0" d="M174.53,45.53c-0.31-0.06-0.6,0.14-0.66,0.45l-0.95,4.92c-0.06,0.31,0.14,0.6,0.45,0.66
			c0.04,0.01,0.07,0.01,0.11,0.01c0.27,0,0.5-0.19,0.56-0.46l0.95-4.92C175.04,45.89,174.84,45.59,174.53,45.53z"/>
		<path class="st0" d="M185.85,45.77l-6.69,10c-0.17,0.26-0.1,0.61,0.16,0.79c0.1,0.06,0.21,0.1,0.31,0.1
			c0.18,0,0.36-0.09,0.47-0.25l6.69-10c0.17-0.26,0.1-0.61-0.16-0.79C186.37,45.44,186.02,45.51,185.85,45.77z"/>
		<path class="st0" d="M180.34,51.57c0.05,0,0.1-0.01,0.15-0.02c0.3-0.08,0.48-0.4,0.39-0.7l-1.38-4.92c-0.08-0.3-0.4-0.48-0.7-0.39
			c-0.3,0.08-0.48,0.4-0.39,0.7l1.38,4.92C179.86,51.41,180.09,51.57,180.34,51.57z"/>
		<path class="st0" d="M197.4,45.52h-2.74c-0.27,0-0.5,0.19-0.56,0.46l-0.95,4.92c-0.06,0.31,0.14,0.6,0.45,0.66
			c0.04,0.01,0.07,0.01,0.11,0.01c0.27,0,0.5-0.19,0.56-0.46l0.86-4.46h2.27c0.31,0,0.57-0.25,0.57-0.57
			C197.97,45.77,197.72,45.52,197.4,45.52z"/>
		<path class="st0" d="M202.89,45.52h-2.86c-0.27,0-0.5,0.19-0.56,0.46l-0.95,4.92c-0.06,0.31,0.14,0.6,0.45,0.66
			c0.04,0.01,0.07,0.01,0.11,0.01c0.27,0,0.5-0.19,0.56-0.46l0.86-4.46h2.39c0.31,0,0.57-0.25,0.57-0.57
			C203.46,45.77,203.2,45.52,202.89,45.52z"/>
		<path class="st0" d="M205.64,45.53c-0.31-0.06-0.6,0.14-0.66,0.45l-0.95,4.92c-0.06,0.31,0.14,0.6,0.45,0.66
			c0.04,0.01,0.07,0.01,0.11,0.01c0.27,0,0.5-0.19,0.56-0.46l0.95-4.92C206.15,45.89,205.95,45.59,205.64,45.53z"/>
		<path class="st0" d="M217.75,45.62c-0.26-0.17-0.61-0.1-0.79,0.16l-6.69,10c-0.17,0.26-0.1,0.61,0.16,0.79
			c0.1,0.06,0.21,0.1,0.31,0.1c0.18,0,0.36-0.09,0.47-0.25l6.69-10C218.08,46.14,218.01,45.79,217.75,45.62z"/>
		<path class="st0" d="M211.45,51.57c0.05,0,0.1-0.01,0.15-0.02c0.3-0.08,0.48-0.4,0.39-0.7l-1.38-4.92c-0.08-0.3-0.4-0.48-0.7-0.39
			c-0.3,0.08-0.48,0.4-0.39,0.7l1.38,4.92C210.98,51.41,211.21,51.57,211.45,51.57z"/>
	</g>
</g>
<path class="st0" d="M98.07,70.84c-2.68-2.68-5.75-5.09-9.12-7.16l0,0c-0.01-0.01-0.02-0.01-0.03-0.02
	c-6.84-3.83-15.76-3.41-20.56,0.78c-0.5-0.83-1.1-1.6-1.79-2.29c-0.89-0.89-2-1.35-3.18-1.32c-0.98,0.02-1.85,0.35-2.53,0.78
	c-1.16-3-1.25-6.76-0.19-10.98C62.28,44.21,66.3,37.53,72,31.83c5.7-5.7,12.37-9.72,18.79-11.32c6.27-1.57,11.52-0.63,14.78,2.63
	c3.27,3.27,4.2,8.52,2.63,14.78c-1.61,6.42-5.63,13.09-11.32,18.79c-1.59,1.59-3.29,3.07-5.06,4.4c-0.37,0.28-0.44,0.8-0.16,1.17
	c0.28,0.37,0.81,0.44,1.17,0.16c1.83-1.38,3.59-2.91,5.23-4.55c5.91-5.91,10.09-12.86,11.77-19.57c1.72-6.86,0.62-12.68-3.07-16.38
	c-3.7-3.7-9.52-4.79-16.38-3.07c-6.71,1.68-13.66,5.86-19.57,11.77c-2.48,2.48-4.66,5.15-6.47,7.91c-1.84-2.79-4-5.45-6.46-7.91
	c-5.91-5.91-12.86-10.09-19.57-11.77c-6.86-1.72-12.68-0.62-16.38,3.07s-4.79,9.51-3.07,16.38c1.68,6.71,5.86,13.66,11.77,19.57
	c2.64,2.64,5.68,5.04,9.05,7.12l0-0.01c0.03,0.02,0.06,0.05,0.09,0.07c6.84,3.83,15.76,3.41,20.56-0.78c0.51,0.83,1.11,1.6,1.8,2.29
	c0.87,0.87,1.93,1.32,3.09,1.32c0.03,0,0.06,0,0.08,0c0.98-0.02,1.85-0.35,2.53-0.78c2.99,7.71-1.32,19.95-11.14,29.77
	c-5.7,5.7-12.37,9.72-18.79,11.32c-6.27,1.57-11.52,0.63-14.78-2.63c-6.86-6.86-2.96-21.92,8.69-33.58c1.59-1.59,3.29-3.07,5.06-4.4
	c0.37-0.28,0.44-0.8,0.16-1.17c-0.28-0.37-0.8-0.44-1.17-0.16c-1.83,1.38-3.59,2.91-5.23,4.55c-12.31,12.31-16.21,28.43-8.69,35.95
	c2.56,2.56,6.12,3.87,10.35,3.87c1.89,0,3.91-0.26,6.03-0.79c6.71-1.68,13.66-5.86,19.57-11.77c2.52-2.52,4.67-5.19,6.46-7.92
	c1.84,2.8,4.01,5.46,6.47,7.92c5.91,5.91,12.86,10.09,19.57,11.77c2.12,0.53,4.14,0.79,6.03,0.79c4.22,0,7.79-1.31,10.35-3.87
	c3.7-3.7,4.79-9.51,3.07-16.38C108.16,83.7,103.98,76.75,98.07,70.84z M40.59,63.62c-0.01-0.01-0.02-0.01-0.04-0.02l0-0.01
	c-3.26-2.02-6.2-4.33-8.75-6.88c-5.7-5.7-9.72-12.37-11.32-18.79c-1.57-6.27-0.63-11.52,2.63-14.78c6.86-6.86,21.92-2.96,33.58,8.69
	c2.57,2.57,4.8,5.35,6.66,8.29c-2,3.32-3.46,6.74-4.3,10.1c-1.2,4.82-1.02,9.12,0.48,12.54C55.38,66.71,46.89,67.15,40.59,63.62z
	 M65.27,66.24c-0.74,0-1.39-0.27-1.96-0.83c-0.67-0.67-1.24-1.44-1.72-2.27c0.48-0.34,1.14-0.62,1.83-0.63
	c0.72-0.01,1.39,0.27,1.96,0.83c0.68,0.68,1.25,1.44,1.72,2.27C66.62,65.95,65.96,66.23,65.27,66.24z M105.57,105.6
	c-3.26,3.27-8.52,4.2-14.78,2.63c-6.42-1.61-13.09-5.63-18.79-11.32c-2.57-2.57-4.81-5.37-6.67-8.31c4.89-8.18,6.39-16.64,3.83-22.6
	c4.13-3.97,12.63-4.41,18.94-0.89c3.25,2,6.21,4.32,8.79,6.91C108.54,83.68,112.43,98.74,105.57,105.6z"/>
</svg>
